<svg width="382" height="90" viewBox="0 0 382 90" fill="none" xmlns="http://www.w3.org/2000/svg">
<g clip-path="url(#clip0_1754_70)">
<path d="M44.3954 8.54907C44.2821 8.79145 44.1054 8.99651 43.8852 9.14125C43.6651 9.28599 43.4101 9.36467 43.1489 9.36848C42.887 9.36788 42.6307 9.29053 42.4099 9.14542C42.1892 9.0003 42.0132 8.79345 41.9024 8.54907C41.1489 6.82838 39.9305 5.3673 38.3927 4.34047C36.8549 3.31364 35.0626 2.76447 33.2299 2.75833C30.702 2.77267 28.2815 3.81319 26.494 5.6542C24.7064 7.49521 23.6961 9.98808 23.6821 12.5916C23.6901 13.6995 23.8784 14.7983 24.2391 15.8421C24.7854 17.4971 25.768 18.963 27.0769 20.0759L42.9898 36.4648L59.6187 19.4477C60.6096 18.4291 61.3703 17.198 61.8465 15.8421C62.222 14.7834 62.4107 13.664 62.4035 12.5369C62.4025 10.2962 61.6564 8.12331 60.2894 6.38008C58.9224 4.63686 57.0169 3.42844 54.8902 2.95589C52.7634 2.48333 50.5437 2.77527 48.6005 3.78297C46.6572 4.79067 45.1076 6.45336 44.2097 8.49439L44.3954 8.54907Z" fill="#AAD4C8"/>
<path d="M41.852 39.1385C42.2088 39.4904 42.6841 39.6863 43.1781 39.6849C43.671 39.6807 44.1444 39.4857 44.5042 39.1385L61.7431 21.4932C63.0064 20.1875 63.9751 18.6115 64.5808 16.877C65.0503 15.5081 65.2924 14.0676 65.297 12.6159C65.3018 9.94649 64.4829 7.34462 62.9585 5.1858C61.434 3.02699 59.2828 1.4229 56.8156 0.605258C54.3483 -0.212385 51.6925 -0.201351 49.2318 0.636768C46.771 1.47489 44.6325 3.09675 43.125 5.26816C42.1446 3.9186 40.9112 2.78552 39.4978 1.93599C38.0844 1.08647 36.5197 0.537742 34.8966 0.322507C33.2735 0.107271 31.625 0.229877 30.0487 0.682948C28.4724 1.13602 27.0005 1.91036 25.7202 2.96013C24.4399 4.00991 23.3772 5.31372 22.5952 6.79429C21.8132 8.27486 21.3277 9.90202 21.1676 11.5794C21.0074 13.2568 21.1759 14.9501 21.663 16.5592C22.15 18.1683 22.9457 19.6604 24.003 20.9469C24.4005 21.4108 24.8257 21.8486 25.2761 22.2579L41.852 39.1385ZM24.2417 15.839C23.881 14.7952 23.6928 13.6965 23.6848 12.5885C23.6721 10.3368 24.4123 8.14915 25.781 6.39317C27.1496 4.63718 29.0634 3.41985 31.2007 2.94563C33.338 2.47141 35.5687 2.76923 37.518 3.78905C39.4673 4.80887 41.0163 6.48862 41.905 8.54598C42.0158 8.79037 42.1918 8.99721 42.4126 9.14233C42.6333 9.28744 42.8897 9.36479 43.1515 9.3654C43.4127 9.36158 43.6677 9.2829 43.8879 9.13816C44.1081 8.99342 44.2847 8.78837 44.398 8.54598C45.1488 6.82323 46.3665 5.36028 47.905 4.33305C49.4434 3.30581 51.2371 2.758 53.0705 2.75524C55.5982 2.76247 58.0198 3.80161 59.8047 5.64494C61.5895 7.48827 62.5917 9.98529 62.5917 12.5885C62.5989 13.7156 62.4103 14.835 62.0348 15.8937C61.5586 17.2496 60.798 18.4806 59.807 19.4991L43.1781 36.5164L27.2652 20.1275C25.9563 19.0146 24.9737 17.5487 24.4274 15.8937L24.2417 15.839Z" fill="#616E7D"/>
<path d="M94.8938 58.6152C88.0247 58.6152 83.8345 54.2995 78.7689 50.6666C74.8561 47.5228 70.0462 45.7948 65.0837 45.75C62.4316 45.75 60.1508 45.75 58.2412 45.75H44.2909C43.7787 45.7053 43.2631 45.7705 42.7767 45.9417C42.2903 46.1129 41.8437 46.3863 41.4652 46.7445C41.0867 47.1027 40.7845 47.538 40.5778 48.0227C40.3711 48.5074 40.2643 49.0309 40.2643 49.5603C40.2643 50.0897 40.3711 50.6134 40.5778 51.0981C40.7845 51.5828 41.0867 52.0181 41.4652 52.3763C41.8437 52.7345 42.2903 53.0079 42.7767 53.1791C43.2631 53.3503 43.7787 53.4155 44.2909 53.3708H57.3925C58.6972 53.5856 59.8844 54.2733 60.7402 55.31C61.5961 56.3467 62.0642 57.6642 62.0603 59.025C62.0616 60.0458 61.7932 61.0476 61.284 61.9234C60.7747 62.7991 60.0438 63.5157 59.1695 63.9963L54.0773 65.3894C52.3534 65.8264 50.7091 66.2908 49.1708 66.7278H48.8526C43.0709 68.2848 36.8914 69.9782 35.751 70.224C35.0764 70.2922 34.3955 70.2461 33.7354 70.0875L13.1017 56.43L9.36216 53.6986C9.18274 53.563 8.98651 53.4527 8.77868 53.3708C8.50827 53.2157 8.22406 53.0876 7.92998 52.9883L7.18738 52.8245H6.39169C6.03036 52.7827 5.66571 52.7827 5.30438 52.8245C3.8438 52.9804 2.49176 53.6905 1.51134 54.8164C0.530926 55.9423 -0.00774477 57.4035 8.41538e-05 58.9158C0.00188534 59.7208 0.159984 60.5173 0.465149 61.2585C0.770313 61.9997 1.21633 62.6704 1.77698 63.2314C2.21333 63.6736 2.71452 64.0424 3.26217 64.3241L4.66781 65.3894L37.0506 89.563H37.4484C38.186 89.8494 38.9675 89.9975 39.7557 90.0001C40.2184 89.996 40.6799 89.9502 41.1348 89.8634H41.2939C52.2738 87.1319 74.9232 81.0681 85.5318 78.364L86.3009 78.0907C89.1411 77.2709 92.0566 76.7582 95 76.5611V74.9496V58.5607L94.8938 58.6152Z" fill="#616E7D"/>
</g>
<g clip-path="url(#clip1_1754_70)">
<path d="M172.604 25.1496C173.391 25.969 174.46 26.4322 175.577 26.4378C176.646 26.4035 177.661 25.9417 178.408 25.1496L180.786 22.7197C181.564 21.8987 182 20.7951 182 19.6455C182 18.496 181.564 17.3921 180.786 16.5712L165.95 1.25897C165.201 0.475028 164.185 0.0235519 163.119 4.79438e-05C162.568 -0.00263244 162.022 0.107101 161.511 0.323133C161.001 0.539166 160.538 0.85723 160.146 1.25897L157.797 3.68908C157.404 4.09182 157.093 4.57069 156.881 5.09829C156.669 5.62589 156.559 6.19175 156.559 6.76321C156.559 7.33468 156.669 7.90054 156.881 8.42814C157.093 8.95574 157.404 9.43461 157.797 9.83735L160.628 12.7651L157.4 16.1321L156.437 15.1366C155.494 14.1517 154.211 13.5939 152.87 13.585C152.206 13.5845 151.547 13.7215 150.935 13.988C150.322 14.2544 149.767 14.645 149.303 15.1366L108.788 56.7111C107.848 57.6926 107.32 59.0184 107.32 60.4002C107.32 61.7819 107.848 63.1078 108.788 64.0892L112.752 68.188L95 89.4144L95.5379 90L116.064 71.6136L120.056 75.7124C120.521 76.204 121.076 76.5946 121.688 76.8611C122.301 77.1276 122.959 77.2647 123.624 77.2642C124.964 77.2554 126.247 76.6973 127.191 75.7124L167.592 33.9329C168.533 32.9515 169.061 31.6258 169.061 30.2441C169.061 28.8623 168.533 27.5365 167.592 26.555L166.63 25.5595L169.858 22.1927L172.604 25.1496ZM163.119 4.33311L177.926 19.6455L175.577 22.0754L160.769 6.76321L163.119 4.33311ZM155.588 39.1445L125.039 70.7352L123.624 72.199L112.299 60.4879L120.566 51.9389L121.529 52.9051L126.03 57.5601C126.183 57.7257 126.368 57.8558 126.573 57.9417C126.778 58.0275 126.998 58.0671 127.219 58.058C127.44 58.0618 127.658 58.0197 127.863 57.9342C128.067 57.8486 128.253 57.7214 128.408 57.5601C128.72 57.2318 128.894 56.7903 128.894 56.3305C128.894 55.8707 128.72 55.4293 128.408 55.1009L123.907 50.4457L122.944 49.4796L125.464 46.8738L126.427 47.8692L128.493 50.0066C128.811 50.3285 129.238 50.5087 129.682 50.5087C130.127 50.5087 130.554 50.3285 130.872 50.0066C131.183 49.6782 131.357 49.2366 131.357 48.7768C131.357 48.317 131.183 47.8756 130.872 47.5472L128.805 45.41L127.842 44.4144L130.022 42.1893L130.956 43.1555L133.023 45.322C133.346 45.6347 133.77 45.8122 134.212 45.8199C134.534 45.8051 134.844 45.6962 135.108 45.5059C135.372 45.3157 135.578 45.0517 135.703 44.745C135.828 44.4383 135.865 44.1015 135.812 43.7734C135.759 43.4454 135.616 43.1398 135.401 42.8921L133.335 40.7547L132.4 39.7885L136.194 35.8361L137.157 36.8023L141.63 41.4573C141.786 41.6186 141.972 41.7458 142.176 41.8314C142.38 41.9169 142.599 41.959 142.819 41.9552C143.04 41.9643 143.261 41.9247 143.466 41.8389C143.671 41.753 143.856 41.6229 144.008 41.4573C144.17 41.2987 144.298 41.108 144.385 40.8966C144.473 40.6852 144.518 40.4577 144.518 40.2277C144.518 39.9978 144.473 39.7702 144.385 39.5589C144.298 39.3475 144.17 39.1567 144.008 38.9981L139.535 34.3136L138.572 33.3475L143.017 28.7509L143.98 29.7462L146.047 31.8836C146.364 32.2055 146.791 32.3858 147.236 32.3858C147.681 32.3858 148.108 32.2055 148.425 31.8836C148.491 31.8028 148.548 31.7143 148.595 31.62C148.824 31.2929 148.932 30.8922 148.901 30.4898C148.87 30.0874 148.701 29.7096 148.425 29.4242L145.396 26.2915L146.443 25.2082L151.879 30.8588C152.199 31.1764 152.625 31.3548 153.068 31.3566C153.511 31.349 153.935 31.1715 154.257 30.8588C154.569 30.5304 154.743 30.089 154.743 29.6292C154.743 29.1694 154.569 28.7279 154.257 28.3996L148.822 22.749L152.729 18.7379L154.399 20.4652C154.488 20.681 154.612 20.8792 154.767 21.0508L161.704 28.2239C161.867 28.3869 162.059 28.5161 162.27 28.6045L163.969 30.3611L155.588 39.1445ZM164.252 23.2759L159.693 18.65L162.525 15.7222L167.083 20.4359L164.252 23.2759Z" fill="#616E7D"/>
</g>
<g clip-path="url(#clip2_1754_70)">
<path d="M250.872 58.6744C250.885 61.3838 251.669 64.0283 253.125 66.2732C254.581 68.5181 256.644 70.2627 259.051 71.2865C261.459 72.3103 264.104 72.5673 266.652 72.0249C269.2 71.4825 271.536 70.165 273.365 68.2392C275.194 66.3134 276.434 63.8656 276.928 61.2055C277.422 58.5454 277.148 55.7924 276.141 53.2947C275.133 50.7969 273.437 48.6666 271.267 47.1731C269.098 45.6795 266.552 44.8899 263.951 44.904C260.47 44.9416 257.143 46.4089 254.694 48.9873C252.245 51.5657 250.871 55.0469 250.872 58.6744V58.6744ZM273.299 55.6779V61.6355H266.896V68.4138H261.281V61.6355H254.809V55.8205H261.281V49.0779H266.896V55.8205L273.299 55.6779Z" fill="#AAD4C8"/>
<path d="M281.995 27.4618C282.006 21.2291 279.963 15.1816 276.209 10.3294C272.454 5.47726 267.215 2.11454 261.367 0.803194C255.519 -0.508155 249.416 0.31125 244.078 3.12454C238.74 5.93784 234.49 10.5747 232.039 16.2601C229.304 9.78139 224.254 4.66737 217.961 2.00274C211.668 -0.661898 204.626 -0.667793 198.328 1.98641C192.031 4.6406 186.973 9.74631 184.228 16.2204C181.483 22.6946 181.266 30.0281 183.624 36.666C184.714 39.8482 186.349 42.7977 188.451 45.3707C189.352 46.44 190.325 47.4416 191.362 48.3675L231.217 89.6076C231.455 89.8527 231.773 89.9932 232.108 90C232.274 90.0005 232.438 89.966 232.591 89.8985C232.744 89.8311 232.882 89.7322 232.998 89.6076L250.94 71.0566C252.546 72.8948 254.494 74.3742 256.665 75.4052C258.837 76.4361 261.186 76.9971 263.572 77.0544C265.957 77.1116 268.329 76.664 270.543 75.7383C272.758 74.8127 274.769 73.4283 276.455 71.6692C278.141 69.91 279.467 67.8126 280.353 65.504C281.238 63.1954 281.664 60.7235 281.606 58.2382C281.548 55.7528 281.006 53.3057 280.014 51.0448C279.021 48.784 277.599 46.7565 275.832 45.0852C277.888 42.5968 279.499 39.7455 280.592 36.666C281.578 33.7084 282.053 30.5922 281.995 27.4618V27.4618ZM277.168 58.499C277.188 61.2099 276.436 63.8661 275.006 66.1313C273.577 68.3966 271.535 70.169 269.138 71.2243C266.742 72.2796 264.098 72.5705 261.543 72.0598C258.988 71.5491 256.635 70.2599 254.783 68.3556C252.932 66.4512 251.664 64.0172 251.14 61.3617C250.617 58.7062 250.862 55.9484 251.843 53.4378C252.825 50.9272 254.499 48.7765 256.654 47.2578C258.81 45.7392 261.349 44.9211 263.951 44.9069C267.432 44.8879 270.779 46.3081 273.256 48.8561C275.734 51.4041 277.14 54.872 277.168 58.499V58.499Z" fill="#616E7D"/>
<path d="M266.827 68.2742V61.4961H273.298V55.6811H266.827V48.9385H261.212V55.6811H254.74V61.4961H261.212V68.2742H266.827Z" fill="white"/>
</g>
<g clip-path="url(#clip3_1754_70)">
<path d="M316.062 9.34121L301.417 31.4754L335.446 56.8966L350.091 34.7623C353.246 29.9671 354.483 24.038 353.53 18.2753C352.577 12.5125 349.513 7.38651 345.008 4.02124C340.503 0.655961 334.926 -0.673821 329.5 0.323486C324.074 1.32079 319.241 4.56368 316.062 9.34121V9.34121Z" fill="#616E7D"/>
<path d="M285.834 55.1664C284.247 57.5384 283.119 60.218 282.513 63.0516C281.908 65.8853 281.837 68.8175 282.306 71.68C282.774 74.5425 283.773 77.2792 285.244 79.7333C286.715 82.1874 288.629 84.3107 290.878 85.9815C293.126 87.6524 295.665 88.8379 298.348 89.4703C301.031 90.1027 303.805 90.1694 306.513 89.6667C309.22 89.1641 311.807 88.1019 314.125 86.5409C316.444 84.98 318.448 82.951 320.023 80.5702L335.398 57.4727L301.209 32.0688L285.834 55.1664Z" fill="#82BFAB"/>
<path d="M367.113 88.122C372.071 86.6153 376.311 83.2092 378.994 78.5769C381.678 73.9447 382.61 68.4232 381.607 63.1035L342.194 74.9768C344.014 80.0591 347.589 84.2342 352.207 86.6705C356.825 89.1067 362.148 89.625 367.113 88.122Z" fill="#AAD4C8"/>
<path d="M355.751 46.3533C350.91 47.8533 346.77 51.2589 344.151 55.8945C341.532 60.5301 340.626 66.0572 341.612 71.3792L380.059 59.5026C378.277 54.4239 374.789 50.2526 370.286 47.8167C365.783 45.3808 360.595 44.8584 355.751 46.3533V46.3533Z" fill="#AAD4C8"/>
<path d="M380.101 60L341.224 71.2383C341.224 71.8069 341.456 72.342 341.588 72.9106C341.721 73.4792 341.953 73.981 342.152 74.4828L381.029 63.2443C381.029 62.6757 380.797 62.1406 380.631 61.6054C380.466 61.0702 380.3 60.5017 380.101 60Z" fill="white"/>
</g>
<defs>
<clipPath id="clip0_1754_70">
<rect width="95" height="90" fill="white"/>
</clipPath>
<clipPath id="clip1_1754_70">
<rect width="87" height="90" fill="white" transform="translate(95)"/>
</clipPath>
<clipPath id="clip2_1754_70">
<rect width="100" height="90" fill="white" transform="translate(182)"/>
</clipPath>
<clipPath id="clip3_1754_70">
<rect width="100" height="90" fill="white" transform="translate(282)"/>
</clipPath>
</defs>
</svg>
